<?xml version="1.0" standalone="no"?>
<!DOCTYPE svg PUBLIC "-//W3C//DTD SVG 20010904//EN"
 "http://www.w3.org/TR/2001/REC-SVG-20010904/DTD/svg10.dtd">
<svg version="1.0" xmlns="http://www.w3.org/2000/svg"
 width="428.000000pt" height="151.000000pt" viewBox="0 0 428.000000 151.000000"
 preserveAspectRatio="xMidYMid meet">

<g transform="translate(0.000000,151.000000) scale(0.100000,-0.100000)"
fill="#000000" stroke="none">
<path d="M828 1124 l-3 -57 -61 52 c-34 28 -67 51 -73 51 -7 0 -115 -91 -242
-202 l-229 -202 29 -30 30 -30 25 23 c31 29 23 49 80 -202 24 -109 47 -201 49
-204 12 -11 67 9 67 25 0 9 -20 113 -45 230 -25 118 -45 221 -44 230 0 14 104
109 244 225 l35 29 137 -115 c191 -159 176 -135 152 -242 -86 -389 -86 -385
-28 -385 30 0 26 -12 85 265 15 72 31 134 35 139 5 5 15 4 24 -4 13 -11 20 -9
45 15 17 16 30 31 30 35 0 3 -45 43 -101 90 -55 46 -107 93 -115 104 -10 14
-14 50 -14 118 l0 98 -55 0 -54 0 -3 -56z"/>
<path d="M1434 980 c-42 -17 -54 -48 -54 -145 0 -85 2 -93 25 -115 21 -20 39
-25 95 -28 l70 -4 0 -39 0 -39 -95 0 -95 0 0 -50 0 -50 125 0 c120 0 127 1
150 25 23 22 25 31 25 117 -1 126 -20 148 -129 148 l-61 0 0 40 0 40 95 0 95
0 0 55 0 55 -112 -1 c-62 0 -123 -4 -134 -9z"/>
<path d="M1833 975 c-46 -20 -55 -65 -51 -256 3 -151 4 -159 27 -183 24 -25
28 -26 146 -26 118 0 122 1 146 26 22 24 24 35 28 145 l3 119 -86 0 -86 0 0
-55 c0 -54 0 -55 30 -55 28 0 30 -2 30 -40 l0 -41 -62 3 -63 3 -3 133 -3 132
121 0 120 0 0 55 0 55 -132 0 c-91 -1 -143 -5 -165 -15z"/>
<path d="M2230 751 l0 -241 55 0 55 0 0 65 0 65 89 0 c132 0 135 4 139 163 3
120 3 125 -21 153 l-25 29 -146 3 -146 4 0 -241z m230 59 l0 -70 -60 0 -60 0
0 70 0 70 60 0 60 0 0 -70z"/>
<path d="M2810 750 l0 -240 55 0 55 0 0 90 0 90 60 0 60 0 0 -90 0 -90 55 0
55 0 0 241 0 240 -52 -3 -53 -3 -3 -92 -3 -93 -59 0 -60 0 0 95 0 95 -55 0
-55 0 0 -240z"/>
<path d="M3260 772 c0 -276 -9 -262 166 -262 133 1 149 7 164 61 6 19 10 121
10 226 l0 193 -55 0 -55 0 0 -190 0 -191 -62 3 -63 3 -3 188 -2 187 -50 0 -50
0 0 -218z"/>
<path d="M3700 751 l0 -241 144 0 c185 0 189 3 194 118 4 74 2 81 -20 98 l-24
17 24 24 c22 22 24 31 20 99 -5 114 -12 118 -193 122 l-145 4 0 -241z m225 89
l0 -35 -57 -3 -58 -3 0 41 0 41 58 -3 57 -3 0 -35z m3 -184 c4 -36 -10 -46
-70 -46 l-48 0 0 40 0 41 58 -3 c55 -3 57 -4 60 -32z"/>
</g>
</svg>
